<svg width="25" height="25" viewBox="0 0 25 25" fill="none" xmlns="http://www.w3.org/2000/svg">
<path d="M22.8333 6.66669H18.3333V5.46669C18.3333 4.19365 17.7012 2.97275 16.576 2.07257C15.4507 1.1724 13.9246 0.666687 12.3333 0.666687C10.742 0.666687 9.21589 1.1724 8.09067 2.07257C6.96545 2.97275 6.33331 4.19365 6.33331 5.46669V6.66669H1.83331C1.43549 6.66669 1.05396 6.79312 0.772653 7.01816C0.491349 7.2432 0.333313 7.54843 0.333313 7.86669L0.333313 21.0667C0.333313 22.0215 0.807419 22.9371 1.65133 23.6123C2.49525 24.2874 3.63984 24.6667 4.83331 24.6667H19.8333C21.0268 24.6667 22.1714 24.2874 23.0153 23.6123C23.8592 22.9371 24.3333 22.0215 24.3333 21.0667V7.86669C24.3333 7.54843 24.1753 7.2432 23.894 7.01816C23.6127 6.79312 23.2311 6.66669 22.8333 6.66669ZM9.33331 5.46669C9.33331 4.83017 9.64938 4.21972 10.212 3.76963C10.7746 3.31954 11.5377 3.06669 12.3333 3.06669C13.129 3.06669 13.892 3.31954 14.4546 3.76963C15.0172 4.21972 15.3333 4.83017 15.3333 5.46669V6.66669H9.33331V5.46669ZM21.3333 21.0667C21.3333 21.3849 21.1753 21.6902 20.894 21.9152C20.6127 22.1403 20.2311 22.2667 19.8333 22.2667H4.83331C4.43549 22.2667 4.05396 22.1403 3.77265 21.9152C3.49135 21.6902 3.33331 21.3849 3.33331 21.0667L3.33331 9.06669H6.33331V10.2667C6.33331 10.5849 6.49135 10.8902 6.77265 11.1152C7.05396 11.3403 7.43549 11.4667 7.83331 11.4667C8.23114 11.4667 8.61267 11.3403 8.89397 11.1152C9.17528 10.8902 9.33331 10.5849 9.33331 10.2667V9.06669H15.3333V10.2667C15.3333 10.5849 15.4913 10.8902 15.7727 11.1152C16.054 11.3403 16.4355 11.4667 16.8333 11.4667C17.2311 11.4667 17.6127 11.3403 17.894 11.1152C18.1753 10.8902 18.3333 10.5849 18.3333 10.2667V9.06669H21.3333V21.0667Z" fill="#264065"/>
</svg>
