<svg xmlns="http://www.w3.org/2000/svg" fill="none" viewBox="0 0 24 24"><path d="M16.429 3.715a7.216 7.216 0 0 0-2.21-2.247C12.75.489 11.018 0 9.024 0 7.333 0 5.796.388 4.41 1.164a8.358 8.358 0 0 0-3.244 3.213C.389 5.744 0 7.296 0 9.033c0 1.738.389 3.29 1.166 4.656a8.592 8.592 0 0 0 3.244 3.213c1.196.655 2.51 1.028 3.945 1.117a8.374 8.374 0 0 1-1.812-3.738 5.033 5.033 0 0 1-.257-.137c-.828-.472-1.479-1.147-1.952-2.024-.456-.877-.684-1.906-.684-3.087 0-1.147.228-2.159.684-3.036.457-.877 1.09-1.552 1.901-2.024.811-.473 1.74-.709 2.788-.709.947 0 1.775.194 2.484.582.17.093.33.195.482.308a9.021 9.021 0 0 1 3.101-.53c.458 0 .905.03 1.339.091Zm-6.153 11.05c.073.196.157.385.25.569.44.861 1.05 1.528 1.83 2l.135.074c.226-.091.447-.192.664-.303 1.233-.641 2.239-1.485 3.016-2.53a8.29 8.29 0 0 0 1.521-3.416V8.072h-6.239c-.365.36-.675.79-.927 1.285-.226.435-.394.91-.504 1.422h4.172c-.27 1.282-.836 2.286-1.698 3.011-.615.506-1.355.831-2.22.976Z"/><g clip-path="url(#a)"><path d="m20.319 23.693-2.868-3.147a8.256 8.256 0 0 1-2.327.31c-1.52 0-2.923-.358-4.208-1.073a8.206 8.206 0 0 1-3.033-3.028c-.737-1.303-1.105-2.766-1.105-4.387 0-1.621.368-3.075 1.105-4.363a8.027 8.027 0 0 1 3.033-3.004c1.285-.73 2.687-1.096 4.208-1.096 1.536 0 2.938.365 4.208 1.096a7.812 7.812 0 0 1 3.032 3.004c.737 1.288 1.105 2.742 1.105 4.363 0 1.526-.329 2.909-.987 4.149a7.801 7.801 0 0 1-2.68 2.956l3.926 4.22h-3.409ZM9.529 12.368c0 1.224.235 2.305.705 3.243.486.921 1.152 1.637 1.998 2.145.846.493 1.81.74 2.892.74 1.081 0 2.045-.247 2.891-.74.846-.508 1.505-1.224 1.975-2.145.486-.938.729-2.019.729-3.243 0-1.224-.243-2.296-.73-3.218-.47-.922-1.128-1.63-1.974-2.122-.846-.493-1.81-.74-2.891-.74-1.082 0-2.046.247-2.892.74-.846.493-1.512 1.2-1.998 2.122-.47.922-.705 1.994-.705 3.218Z"/></g><defs><clipPath id="a"><path fill="#fff" d="M6.369 3.47h17.63V24H6.37z"/></clipPath></defs>
    <style>
        svg path:first-child { fill: #264065; }
        svg path:last-child { fill: #A9D6CB; }
        @media (prefers-color-scheme: dark) {
            svg path:first-child { fill: #FFF; }
            svg path:last-child { fill: #A9D6CB; }
        }
    </style>
</svg>