<svg xmlns="http://www.w3.org/2000/svg" width="57" height="56" fill="none"><path d="M13.15 26.66a4.38 4.38 0 0 0-1.275 3.09v6.422A12.795 12.795 0 0 0 21.5 48.584v3.041a.875.875 0 0 0 .875.875h12.25a.875.875 0 0 0 .875-.875v-3.041a12.795 12.795 0 0 0 9.625-12.412V32.82a6.095 6.095 0 0 0 4.426-2.08l2.356-2.678a.874.874 0 0 0-.186-1.312l-3.008-1.922a6.07 6.07 0 0 0-5.782-.419l.685-1.173 3.062-1.064a6.092 6.092 0 0 0 4.02-6.884l-.638-3.51a.874.874 0 0 0-1.147-.669l-3.37 1.168a6.093 6.093 0 0 0-4.016 6.886l.581 3.189-.67 1.146a6.089 6.089 0 0 0-3.22-4.8l-3.15-1.676a.876.876 0 0 0-1.238.484l-1.174 3.366a6.102 6.102 0 0 0 .18 4.503h-6.755l-1.303-4.171a4.032 4.032 0 0 0-7.812 1.946l.421 2.225H16.25a4.388 4.388 0 0 0-3.1 1.285Zm32.97-12.73 2.407-.833.456 2.505a4.352 4.352 0 0 1-2.873 4.917l-2.405.834-.456-2.506a4.353 4.353 0 0 1 2.872-4.917ZM33.75 50.75h-10.5v-1.837c.482.056.967.085 1.453.087h7.595c.485-.002.97-.032 1.452-.087v1.837Zm9.625-14.578A11.072 11.072 0 0 1 32.297 47.25h-7.594a11.025 11.025 0 0 1-11.05-10.486 6.81 6.81 0 0 0 3.326.861h1.896a.875.875 0 1 0 0-1.75h-1.9a5.063 5.063 0 0 1-3.35-1.26v-1.388a4.33 4.33 0 0 0 2.625.898h24.5a4.346 4.346 0 0 0 2.625-.898v2.946Zm-5.092-3.797 1.138-1.946 2.238 1.428c.111.072.23.123.343.186a2.607 2.607 0 0 1-1.252.332h-2.467Zm3.85-5.274a4.35 4.35 0 0 1 5.638-.799l2.147 1.37-1.681 1.912a4.35 4.35 0 0 1-5.638.799l-2.146-1.37 1.68-1.912Zm-7.825-5.651.839-2.405 2.247 1.197a4.351 4.351 0 0 1 2.075 5.303l-.838 2.403-2.249-1.196a4.353 4.353 0 0 1-2.073-5.302Zm-.295 5.675c.45.47.972.865 1.547 1.172l2.346 1.25-1.648 2.828h-7.99l-.547-1.75h1.654a.875.875 0 1 0 0-1.75h-2.2l-.547-1.75h7.385Zm-14.84-6.175a2.282 2.282 0 0 1 3.937.776l3.325 10.649h-5.959l-1.79-9.548a2.275 2.275 0 0 1 .486-1.877Zm-1.462 6.175.328 1.75H16.25a.875.875 0 1 0 0 1.75h2.117l.329 1.75H16.25a2.625 2.625 0 0 1 0-5.25h1.461Z"/><path d="M23.25 35.875h-.875a.875.875 0 1 0 0 1.75h.875a.875.875 0 1 0 0-1.75Zm9.625-5.25h.875a.875.875 0 1 0 0-1.75h-.875a.875.875 0 1 0 0 1.75ZM22.504 9.397a2.626 2.626 0 0 0 1.686 3.308c.372.121.762.183 1.154.183.114 0 .226-.023.34-.033a2.625 2.625 0 0 0 3.915 2.87c.294-.18.55-.417.752-.697.3-.412.512-.882.622-1.38a2.615 2.615 0 0 0 3.492-3.762 3.715 3.715 0 0 0-1.107-1.01 2.625 2.625 0 0 0-2.513-4.493c-.48.156-.923.408-1.302.741a2.625 2.625 0 0 0-5.048 1.001c0 .504.103 1.002.301 1.465a2.631 2.631 0 0 0-2.292 1.807Zm10.546 1.516a.874.874 0 0 1-.845 1.379.875.875 0 0 1-.57-.35l-1.226-1.686.737-.123a1.95 1.95 0 0 1 1.904.78Zm-2.992-3.296a1.944 1.944 0 0 1 1.33-1.57.875.875 0 1 1 .54 1.664l-1.982.644.111-.738Zm-.968 4.331A1.946 1.946 0 0 1 28.938 14a.875.875 0 0 1-1.416-1.029l1.225-1.686.343.663ZM27.12 5.25a.875.875 0 0 1 .875.875v2.084l-.668-.334a1.944 1.944 0 0 1-1.082-1.75.875.875 0 0 1 .875-.875ZM24.17 9.937a.875.875 0 0 1 1.103-.561l1.982.644-.525.533a1.946 1.946 0 0 1-1.998.487.875.875 0 0 1-.562-1.103Zm-3.153-2.485a.875.875 0 0 0-1.174.392 4.812 4.812 0 0 0 0 4.283.874.874 0 0 0 1.178.39.876.876 0 0 0 .392-1.173 3.047 3.047 0 0 1 0-2.717.873.873 0 0 0-.396-1.175Zm15.412 5.376a.875.875 0 1 0 1.155 1.313l.155-.137a3.686 3.686 0 0 0 1.138-3.725.874.874 0 1 0-1.692.443 1.947 1.947 0 0 1-.603 1.968l-.153.138Z"/></svg>