<svg xmlns="http://www.w3.org/2000/svg" width="57" height="56" fill="none"><path d="M13.07 43.019a9.72 9.72 0 0 1-.99-.746l-1.094-.938a.875.875 0 0 0-1.138 1.33l1.094.936c.37.319.762.613 1.17.88a.875.875 0 1 0 .963-1.462h-.005Zm7.409 1.468a9.816 9.816 0 0 1-1.638.138h-.404c-.952 0-1.898-.14-2.81-.414a.875.875 0 0 0-.504 1.677 11.52 11.52 0 0 0 3.315.487h.403c.647 0 1.292-.054 1.93-.163a.876.876 0 1 0-.292-1.725Zm25.535-3.152-1.094.938a9.73 9.73 0 0 1-.99.745.875.875 0 1 0 .962 1.463 11.43 11.43 0 0 0 1.17-.875l1.094-.937a.876.876 0 0 0-1.138-1.33l-.004-.004Zm-4.641 2.876a9.734 9.734 0 0 1-2.81.414h-.404a9.816 9.816 0 0 1-1.638-.138.877.877 0 0 0-1.009.716.876.876 0 0 0 .717 1.01 11.54 11.54 0 0 0 1.93.162h.404c1.122 0 2.239-.164 3.314-.487a.875.875 0 1 0-.504-1.677Z"/><path d="M46.062 33.4a11.574 11.574 0 0 0-3.246-1.952 13.29 13.29 0 0 0 1.75-4.768l1.428-9.043a.875.875 0 0 0-1.001-1l-6.73 1.062-2.029-4.908a.875.875 0 0 0-1.375-.333l-2.171 1.846-3.429-5.992a.91.91 0 0 0-1.518 0L24.317 14.3l-2.172-1.845a.866.866 0 0 0-.772-.184.875.875 0 0 0-.603.515l-2.003 4.835-6.266-.989a.875.875 0 0 0-1 1l1.424 9.055c.266 1.627.83 3.19 1.662 4.613a11.479 11.479 0 0 0-3.646 2.1L7.81 36.087a.875.875 0 0 0 0 1.328l3.13 2.686a11.55 11.55 0 0 0 7.498 2.774h.403c1.188 0 2.369-.183 3.5-.545a14.787 14.787 0 0 0 5.635 9.12.875.875 0 0 0 1.05 0 14.788 14.788 0 0 0 5.639-9.12c1.131.362 2.312.546 3.5.545h.402a11.55 11.55 0 0 0 7.5-2.775l3.132-2.686a.874.874 0 0 0 0-1.328L46.062 33.4Zm-1.987-14.85-1.242 7.857a11.573 11.573 0 0 1-1.815 4.648 11.725 11.725 0 0 1-8.925 5.162l-.497.033a4.834 4.834 0 0 1-2.504-.497c-.011-.005-.02-.01-.033-.014a4.91 4.91 0 0 1-2.686-4.712l.032-.497a11.656 11.656 0 0 1 9.813-10.738l7.857-1.242Zm-9.003-3.98 1.409 3.412-.537.088c-.35.055-.7.14-1.05.224-.242-.496-.491-.98-.75-1.434l-.575-1.006 1.503-1.284Zm-10.695 3.155 4.123-7.212 4.123 7.212c.2.35.391.71.578 1.081-.914.352-1.786.803-2.601 1.344a13.2 13.2 0 0 0-1.855 1.526 12.82 12.82 0 0 0-4.867-3.024c.166-.322.334-.627.499-.927Zm-2.45-3.156 1.506 1.28-.578 1.011c-.234.417-.463.856-.693 1.313-.215-.045-.42-.08-.62-.11l-.997-.157 1.382-3.337Zm-8.51 3.981 7.86 1.24a11.315 11.315 0 0 1 6.3 3.178 13.457 13.457 0 0 0-2.909 7.444l-.032.497a6.65 6.65 0 0 0 1.936 5.151c.056.058.12.108.179.163a5.208 5.208 0 0 1-.85.03l-.507-.036c-.653-.042-1.3-.143-1.935-.302a11.672 11.672 0 0 1-3.123-1.235 11.545 11.545 0 0 1-3.685-3.378l-.175-.246a11.66 11.66 0 0 1-1.814-4.645l-1.245-7.861Zm5.423 22.575h-.402a9.8 9.8 0 0 1-6.36-2.352L9.718 36.75l2.363-2.023a9.728 9.728 0 0 1 3.526-1.914 13.114 13.114 0 0 0 7.437 4.801c.731.184 1.477.3 2.229.35l.505.036c.077.005.154.006.23.007l-.263.263a9.746 9.746 0 0 1-6.906 2.855Zm9.66 8.51a13.03 13.03 0 0 1-4.505-7.985 11.404 11.404 0 0 0 2.989-2.143l1.516-1.52 1.516 1.517a11.426 11.426 0 0 0 2.99 2.143 13.03 13.03 0 0 1-4.506 7.987Zm16.424-10.863a9.8 9.8 0 0 1-6.361 2.353h-.403a9.76 9.76 0 0 1-6.907-2.859l-.269-.268c.095 0 .19.014.286.014.148 0 .297-.005.445-.014l.497-.033a13.485 13.485 0 0 0 9.571-5.026 9.859 9.859 0 0 1 3.139 1.788l2.359 2.023-2.357 2.022ZM5.75 35.875H4v1.75h1.75v-1.75ZM11 14H9.25v1.75H11V14ZM29.375 4.375h-1.75v1.75h1.75v-1.75ZM47.75 14H46v1.75h1.75V14ZM53 35.875h-1.75v1.75H53v-1.75Z"/></svg>