<svg xmlns="http://www.w3.org/2000/svg" width="57" height="56" fill="none"><path d="m16.471 45.406.733 1.171a13.014 13.014 0 0 0 21.418.885l1.284-1.712a13.044 13.044 0 0 0 2.594-7.713l3.063-2.553a4.212 4.212 0 0 0 .324-6.192.865.865 0 0 0 .113-.417v-5.25a17.486 17.486 0 0 0-8.152-14.768l-.969-1.925a9.363 9.363 0 0 0-16.756 0l-.718 1.426a.87.87 0 0 0-.087.399A17.31 17.31 0 0 0 11 23.625v5.25a.845.845 0 0 0 .118.413 4.212 4.212 0 0 0 .32 6.196l3.062 2.55v.498c0 2.43.682 4.813 1.971 6.874ZM40.75 28.875v9.094a11.287 11.287 0 0 1-2.244 6.731l-1.283 1.712a11.238 11.238 0 0 1-18.534-.761l-.734-1.173a11.207 11.207 0 0 1-1.705-5.947v-9.656a.925.925 0 0 0-.022-.11 46.475 46.475 0 0 0 3.687-2.515H33.1l7.651 2.25v.375ZM22.085 24.5a47.55 47.55 0 0 0 1.566-1.4c1.029.548 2.111.991 3.23 1.322l.268.079-5.064-.001Zm23.072 6.811a2.476 2.476 0 0 1-.716 2.829L42.5 35.757V29.75h.35a2.469 2.469 0 0 1 2.306 1.561ZM28.5 3.5a7.564 7.564 0 0 1 6.655 3.947c-.215-.087-.437-.16-.657-.24-.007 0-.012-.01-.02-.013-.032-.011-.065-.019-.097-.03a17.059 17.059 0 0 0-1.26-.4c-.106-.03-.212-.055-.319-.082a17.155 17.155 0 0 0-1.147-.257c-.22-.041-.437-.068-.66-.101-.29-.042-.577-.088-.875-.117a16.912 16.912 0 0 0-1.62-.082 17.5 17.5 0 0 0-6.665 1.339A7.557 7.557 0 0 1 28.5 3.5Zm0 4.375c.492 0 .976.03 1.456.073.274.027.547.07.82.11.184.028.37.051.551.088.361.068.721.15 1.08.243.076.02.153.038.228.06A15.762 15.762 0 0 1 44.25 23.625v4.08l-16.876-4.964a15.436 15.436 0 0 1-10.303-9.949A15.6 15.6 0 0 1 28.5 7.875Zm-15.75 15.75c0-3.334 1.062-6.582 3.034-9.27a17.17 17.17 0 0 0 6.294 7.803 45.01 45.01 0 0 1-3.073 2.582c-.01.009-.02.014-.028.023A44.66 44.66 0 0 1 14.117 28a4.222 4.222 0 0 0-1.367.243v-4.618Zm-.19 10.515a2.483 2.483 0 0 1 1.59-4.39h.35v6.007l-1.94-1.617Z"/><path d="M27.625 33.25a5.25 5.25 0 1 0-10.5 0 5.25 5.25 0 0 0 10.5 0Zm-5.25 3.5a3.5 3.5 0 1 1 0-7 3.5 3.5 0 0 1 0 7Z"/><path d="M23.25 30.625H21.5v1.75h1.75v-1.75ZM23.25 34.125H21.5v1.75h1.75v-1.75ZM25 32.375h-1.75v1.75H25v-1.75ZM21.5 32.375h-1.75v1.75h1.75v-1.75ZM29.375 33.25a5.25 5.25 0 1 0 10.499 0 5.25 5.25 0 0 0-10.499 0Zm5.25-3.5a3.5 3.5 0 1 1 0 7 3.5 3.5 0 0 1 0-7Z"/><path d="M35.5 30.625h-1.75v1.75h1.75v-1.75ZM35.5 34.125h-1.75v1.75h1.75v-1.75ZM37.25 32.375H35.5v1.75h1.75v-1.75ZM33.75 32.375H32v1.75h1.75v-1.75ZM32.256 43.131a5.319 5.319 0 0 1-7.512 0 .875.875 0 0 0-1.238 1.238 7.07 7.07 0 0 0 9.988 0 .875.875 0 0 0-1.238-1.238Z"/><path d="m26.359 41.913 1.75.875a.875.875 0 1 0 .782-1.567l-1.042-.52 1.47-3.866a.876.876 0 0 0-1.637-.621l-1.75 4.605a.875.875 0 0 0 .427 1.093Z"/></svg>